<svg xmlns="http://www.w3.org/2000/svg"  viewBox="0 0 48 48" width="50px" height="50px"><path fill="#f55376" d="M34,42H14c-4.418,0-8-3.582-8-8V14c0-4.418,3.582-8,8-8h20c4.418,0,8,3.582,8,8v20	C42,38.418,38.418,42,34,42z"/><path fill="#fac8d5" d="M18,15v14.785c-0.079,0.034-2.114,0.452-3.02,0.74c-1.087,0.345-1.753,1.16-1.933,2.187	c-0.255,1.458,0.546,2.76,1.918,3.126c1.365,0.364,2.698,0.116,3.835-0.767c0.893-0.693,1.2-1.684,1.2-2.782V19.571l10-2.143v10.356	c-0.079,0.034-2.114,0.452-3.02,0.74c-1.087,0.345-1.753,1.16-1.933,2.187c-0.255,1.458,0.546,2.76,1.918,3.126	c1.365,0.364,2.698,0.116,3.835-0.767c0.893-0.692,1.2-1.683,1.2-2.781V12L18,15z"/><polygon fill="#fff" points="20,14.571 18,15 18,20 20,19.571"/><polygon fill="#fff" points="30,12.429 30,17.429 32,17 32,12"/></svg>