<svg xmlns="http://www.w3.org/2000/svg" xmlns:xlink="http://www.w3.org/1999/xlink" viewBox="0,0,256,256" width="30px" height="30px"><g fill="#c5f2f9" fill-rule="nonzero" stroke="none" stroke-width="1" stroke-linecap="butt" stroke-linejoin="miter" stroke-miterlimit="10" stroke-dasharray="" stroke-dashoffset="0" font-family="none" font-weight="none" font-size="none" text-anchor="none" style="mix-blend-mode: normal"><g transform="scale(9.84615,9.84615)"><path d="M20.21875,0.125c-1.84766,-0.00781 -5.62109,0.02344 -7.4375,1.84375l-0.375,0.375c-2.14844,2.16016 -2.28125,5.41406 -0.5625,7.75l-10.625,9.625c-0.84766,0.84766 -1.96094,3.13281 0,5.09375c1.96094,1.96094 4.28125,0.84375 5.125,0c0,0 6.96484,-7.61719 7.5625,-8.28125c0.59766,-0.66797 0.28125,-1.375 0.28125,-1.375c0,0 -1.24609,-1.69531 -1.90625,-2.71875c-0.35937,-0.55859 -0.19531,-0.63672 0.3125,-0.3125c1.27734,0.81641 2.65234,1.64063 3.125,1.90625c0.03906,0.02344 0.16406,0.11328 0.1875,0.125c0.01172,0.00781 0.01953,0.02344 0.03125,0.03125c2.32813,1.74609 5.58594,1.60156 7.75,-0.5625l0.375,-0.375c1.76172,-1.76172 1.80469,-5.46094 1.8125,-7.34375c0.00391,-0.60156 -0.4375,-0.21875 -0.4375,-0.21875c0,0 -3.14453,3.17578 -3.46875,3.5c-0.32422,0.32422 -1.40625,0.28125 -1.40625,0.28125c0,0 -2.86719,-0.30469 -3.28125,-0.71875c-0.41406,-0.41406 -0.71875,-3.4375 -0.71875,-3.4375c0,0 -0.07031,-0.83594 0.34375,-1.25c0.41406,-0.41406 3.5,-3.5 3.5,-3.5c0,0 0.38672,-0.43359 -0.1875,-0.4375zM4.0625,20.15625c0.98828,0 1.78125,0.79297 1.78125,1.78125c0,0.98828 -0.79297,1.78125 -1.78125,1.78125c-0.98828,0 -1.78125,-0.79297 -1.78125,-1.78125c0,-0.98828 0.79297,-1.78125 1.78125,-1.78125z"></path></g></g></svg>