<svg xmlns="http://www.w3.org/2000/svg"  viewBox="0 0 48 48" width="50px" height="50px"><path fill="#eb0000" d="M45,27.5H3V33l0.003,0.001v0.53c-0.009,0.783,0.406,1.571,1.251,1.938l15.096,6.563	c2.966,1.289,6.334,1.289,9.299,0l15.096-6.563c0.845-0.368,1.26-1.155,1.251-1.938v-0.53L45,33V27.5z"/><path fill="#f55376" d="M43.746,25.53L28.65,18.967c-2.966-1.289-6.334-1.289-9.299,0L4.254,25.53	c-0.857,0.372-1.268,1.176-1.247,1.97c-0.021,0.794,0.39,1.597,1.247,1.969l15.096,6.563c2.966,1.289,6.334,1.289,9.299,0	l15.096-6.563c0.857-0.372,1.268-1.176,1.247-1.969C45.013,26.706,44.602,25.903,43.746,25.53z"/><rect width="4" height="16" x="22" y="13" fill="#7debf5"/><circle cx="24" cy="10" r="6" fill="#f55376"/><ellipse cx="10.5" cy="27.5" fill="#fac8d5" rx="2.5" ry="1.5"/><path fill="#3dd9eb" d="M22,18.186V29h4V18.186C24.676,17.955,23.324,17.956,22,18.186z"/><path fill="#eb0000" d="M22,15.651C22.626,15.873,23.298,16,24,16s1.374-0.127,2-0.349V13h-4V15.651z"/></svg>